<?xml version="1.0" standalone="no"?><!DOCTYPE svg PUBLIC "-//W3C//DTD SVG 1.1//EN" "http://www.w3.org/Graphics/SVG/1.1/DTD/svg11.dtd"><svg t="1768895239096" class="icon" viewBox="0 0 1024 1024" version="1.1" xmlns="http://www.w3.org/2000/svg" p-id="12733" width="256" height="256" xmlns:xlink="http://www.w3.org/1999/xlink"><path d="M512 512m-512 0a512 512 0 1 0 1024 0 512 512 0 1 0-1024 0Z" fill="#FFB925" p-id="12734"></path><path d="M711.109486 256a56.890514 56.890514 0 0 1 56.890514 56.890514V711.094857a56.905143 56.905143 0 0 1-56.890514 56.890514H312.905143a56.890514 56.890514 0 0 1-56.890514-56.890514V312.905143a56.890514 56.890514 0 0 1 56.890514-56.890514H711.094857z m-304.566857 155.428571l-78.394515 78.409143a31.363657 31.363657 0 0 0 0 44.324572l78.409143 78.409143a28.437943 28.437943 0 1 0 40.213943-40.2432L386.442971 512l60.328229-60.328229a28.4672 28.4672 0 0 0-40.213943-40.257828z m170.686171 0c-11.117714 11.117714-11.117714 29.140114 0 40.2432L637.557029 512l-60.328229 60.328229a28.4672 28.4672 0 0 0 40.228571 40.257828l78.394515-78.409143a31.363657 31.363657 0 0 0 0-44.353828l-78.409143-78.394515a28.437943 28.437943 0 0 0-40.228572 0z" fill="#FFFFFF" p-id="12735"></path></svg>